<?xml version="1.0" encoding="UTF-8" standalone="no"?>
<svg
   xmlns:dc="http://purl.org/dc/elements/1.1/"
   xmlns:cc="http://creativecommons.org/ns#"
   xmlns:rdf="http://www.w3.org/1999/02/22-rdf-syntax-ns#"
   xmlns:svg="http://www.w3.org/2000/svg"
   xmlns="http://www.w3.org/2000/svg"
   xmlns:sodipodi="http://sodipodi.sourceforge.net/DTD/sodipodi-0.dtd"
   xmlns:inkscape="http://www.inkscape.org/namespaces/inkscape"
   inkscape:version="1.0 (4035a4f, 2020-05-01)"
   sodipodi:docname="map.svg"
   width="1920"
   height="1080"
   viewBox="0 0 508 285.75"
   version="1.1"
   id="svg8">
  <sodipodi:namedview
     inkscape:current-layer="svg8"
     inkscape:window-maximized="0"
     inkscape:window-y="0"
     inkscape:window-x="0"
     inkscape:cy="286.224"
     inkscape:cx="1318.7091"
     inkscape:zoom="0.28533009"
     showgrid="false"
     id="namedview930"
     inkscape:window-height="900"
     inkscape:window-width="1440"
     inkscape:pageshadow="2"
     inkscape:pageopacity="0"
     guidetolerance="10"
     gridtolerance="10"
     objecttolerance="10"
     borderopacity="1"
     bordercolor="#666666"
     pagecolor="#ffffff" />
  <defs
     id="defs2">
    <clipPath
       clipPathUnits="userSpaceOnUse"
       id="clipPath860">
      <rect
         style="fill:#00ffff;fill-opacity:0.478723;stroke:#ffffff;stroke-width:0;stroke-linecap:round;paint-order:fill markers stroke"
         id="rect862"
         width="217.48389"
         height="195.61729"
         x="43.018539"
         y="18.911642" />
    </clipPath>
    <clipPath
       id="clipPath908"
       clipPathUnits="userSpaceOnUse">
      <path
         id="path906"
         d="M 42.016,55.457 H 241.493 V 244.645 H 42.016 Z" />
    </clipPath>
    <clipPath
       id="clipPath1029"
       clipPathUnits="userSpaceOnUse">
      <path
         id="path1027"
         d="M 0,0 H 595.2 V 841.8 H 0 Z" />
    </clipPath>
  </defs>
  <metadata
     id="metadata5">
    <rdf:RDF>
      <cc:Work
         rdf:about="">
        <dc:format>image/svg+xml</dc:format>
        <dc:type
           rdf:resource="http://purl.org/dc/dcmitype/StillImage" />
        <dc:title></dc:title>
      </cc:Work>
    </rdf:RDF>
  </metadata>
  <rect
     y="-1.1714225"
     x="-1.6961323"
     height="288.31158"
     width="515.14557"
     id="rect884"
     style="fill:#eee3d0;fill-opacity:1;stroke:#c2836c;stroke-width:0;stroke-linecap:round;stroke-miterlimit:4;stroke-dasharray:none;paint-order:fill markers stroke" />
  <path
     id="path1013"
     d="m 489.24891,209.80524 6.02069,1.12924 2.3687,-0.27796 2.64737,1.11181 2.78672,0.69488 h 2.78671 l 2.22937,1.52875 1.81135,1.11182 -0.13934,16.53821 0.27867,4.44726 -0.97535,-0.27795 -0.69668,2.08465 -0.69668,1.52874 -0.97534,0.13898 -0.97536,2.77953 -2.3687,-1.11181 -6.82742,0.27795 -7.27471,-3.30056 v 0"
     style="fill:#ffffff;stroke:#000000;stroke-width:1.00829;stroke-linecap:butt;stroke-linejoin:miter;stroke-miterlimit:4;stroke-dasharray:none;stroke-opacity:1" />
  <path
     id="path874"
     style="fill:#c2746c;fill-opacity:1;stroke:#000000;stroke-width:1.00829;stroke-linecap:butt;stroke-linejoin:miter;stroke-miterlimit:4;stroke-dasharray:none;stroke-opacity:1"
     d="m 132.33655,161.51282 -1.54116,3.14725 -3.29675,0.21231 -3.61551,-1.16669 -3.29676,-2.12158 -4.04074,-2.22722 -7.06827,-0.98871 3.15276,2.75176 2.75887,9.82785 3.94106,6.68269 1.57665,5.50352 8.67099,4.32433 9.4588,3.53805 7.48826,3.53753 6.69994,1.96599 2.75886,-0.39341 -1.57611,-4.32434 -5.91215,-8.64815 -3.54717,-5.89641 v -4.71774 l -4.7294,-4.32382 -4.7294,-4.71722 z" />
  <path
     id="path880"
     style="fill:#daaca7;fill-opacity:1;stroke:#000000;stroke-width:1.00829;stroke-linecap:butt;stroke-linejoin:miter;stroke-miterlimit:4;stroke-dasharray:none;stroke-opacity:1"
     d="m 113.11688,58.755412 -5.42485,0.705633 -6.13232,2.117418 -2.830352,1.176053 -3.30197,1.882205 -4.717407,0.235211 -2.830327,2.116898 0.472154,5.646091 2.122363,4.940475 4.717395,7.057355 2.358698,3.999108 -3.774124,4.705252 -1.650722,3.528674 4.481061,5.881295 4.481581,4.46953 1.17911,3.99962 v 3.52869 l 1.88708,3.05826 0.23581,1.35298 v 1.88845 l -0.37877,2.41663 -1.89282,1.96391 -2.120275,1.35975 -1.211452,2.19027 -1.363253,1.43468 -1.346563,2.40622 1.182736,1.57259 -2.758848,5.11063 -2.75887,3.14463 0.393902,1.96547 4.335497,3.14517 5.911636,2.75176 1.57666,3.14463 4.33499,1.57259 1.18273,3.14464 7.06827,0.98871 4.04074,2.22722 3.29676,2.12158 3.61551,1.16669 3.29676,-0.21231 1.54116,-3.14725 -10.24763,-7.46898 -6.30551,-2.75176 -6.30606,-7.86186 0.78833,-5.89692 0.3939,-1.96547 h -3.94109 l -4.72941,1.1797 -0.39442,-5.50351 6.30605,-7.46951 4.33551,-3.93094 -0.39442,-6.2898 v -3.53806 l 6.30604,2.75177 3.54717,3.14517 7.09437,-0.78629 5.51773,0.78629 2.67328,-0.45898 0.56713,-1.2437 -0.22697,-2.60034 -1.1337,-1.80935 2.94772,-2.48741 4.42106,-3.05306 1.92724,-1.46954 3.5138,-0.67857 2.49434,0.45221 2.94721,0.33928 5.44153,-0.45221 1.7003,-0.33928 1.58706,0.56513 4.96522,1.4862 0.47372,-1.53615 1.30326,-1.77241 0.23687,-3.544806 -1.54013,-3.544802 -3.07971,-3.544291 -4.3835,-2.245432 -0.94745,-2.953659 -0.82899,-3.308564 -2.8434,-1.890537 -3.67239,-3.426684 -3.90925,-1.181253 -3.43553,0.118121 -3.55343,2.481158 -4.85722,0.354381 -3.67239,-0.708752 -3.31658,-0.35438 -2.96183,1.654287 -3.90925,0.35437 -0.23686,-1.890527 0.47372,-4.017315 0.3553,-4.371696 -1.83386,-2.57379 -3.73395,-1.207276 -2.25069,-1.299904 -1.24118,-2.810038 z" />
  <path
     id="path877"
     style="fill:#c2836c;fill-opacity:1;stroke:#000000;stroke-width:1.00829;stroke-linecap:butt;stroke-linejoin:miter;stroke-miterlimit:4;stroke-dasharray:none;stroke-opacity:1"
     d="m 158.34851,133.60236 1.8902,-2.95834 3.52109,-2.30112 3.88525,-1.69538 3.27799,0.48446 4.85668,-0.48446 0.60676,-1.81612 -1.45663,-2.30111 1.33559,-0.96895 4.61358,-1.45289 4.12787,-0.72645 4.12784,-2.17986 0.84987,-3.27005 0.12157,-2.66381 v -3.02755 l -0.60675,-2.17986 -0.75441,-4.61573 -2.01384,1.18178 -3.90926,0.11812 h -3.67239 l -2.36914,0.35438 -0.47424,1.18177 -2.36914,1.06313 -3.19867,-0.23626 -2.606,-0.945 -4.96521,-1.4862 -1.58707,-0.56512 -1.70029,0.33928 -5.44154,0.45221 -2.94721,-0.33928 -2.49434,-0.45221 -3.51379,0.67857 -1.92724,1.46954 -4.42106,3.05304 -2.94772,2.4874 1.1337,1.80935 0.22696,2.60033 -0.56712,1.2437 -2.67328,0.45898 3.54716,5.1101 9.06438,4.71775 4.33549,4.71722 0.78832,1.57206 z" />
  <path
     style="fill:#c2836c;fill-opacity:1;stroke:#000000;stroke-width:1.00829;stroke-linecap:butt;stroke-linejoin:miter;stroke-miterlimit:4;stroke-dasharray:none;stroke-opacity:1"
     d="m 58.882653,165.27262 9.10734,1.87021 4.821525,0.26717 7.768017,0.53435 6.160847,0.80152 4.285806,5.34346 2.946481,4.54195 4.017941,1.33587 5.89298,3.47324 7.50017,2.93891 5.89297,3.74042 1.87504,1.33587 2.94649,-0.26717 6.96443,3.20608 8.83947,3.74042 -0.80358,2.67173 2.41075,1.87022 4.82152,0.53434 4.55369,0.26717 -0.26786,2.40457 -0.26787,0.80151 3.75008,1.33587 3.21434,3.74042 1.87505,5.34347 -0.80359,4.80912 v 3.74042 h 2.41077 l 2.67862,-3.20608 5.89299,0.26718 5.35723,3.47325 2.41078,3.74042 -2.41078,6.14498 -1.07144,7.21368 -1.87504,3.20608 -7.76802,0.80152 -8.57159,-2.40456 -6.69657,-4.27477 -7.50017,-4.27477 -6.96443,-4.0076 -5.62511,-3.20608 -5.35725,-5.8778 -4.82153,-5.0763 -2.41077,-5.34347 -4.01794,-3.74042 -5.35726,-4.0076 -4.2858,-2.13738 -1.875041,-4.0076 -4.55367,-4.00759 -2.410762,-3.20609 -4.553661,-1.60304 -3.750086,-3.20607 -2.678625,-4.0076 -5.08939,-2.9389 -4.553661,-2.40457 -2.946491,-2.67173 -2.946491,-2.40456 -3.482222,-1.60304 -2.142898,-2.67173 z"
     id="path886" />
  <path
     style="fill:#c2836c;fill-opacity:1;stroke:#000000;stroke-width:1.00829;stroke-linecap:butt;stroke-linejoin:miter;stroke-miterlimit:4;stroke-dasharray:none;stroke-opacity:1"
     d="m 169.50996,251.83674 4.28581,-1.60304 2.14289,-1.87022 3.75008,-1.06869 7.76803,1.33587 9.37519,1.06869 7.2323,1.87021 4.55365,2.13739 7.23231,-0.53435 7.23228,-1.0687 4.01794,-1.60303 5.35726,2.13739 9.10734,1.33586 4.28579,2.40456 2.67864,3.74042 6.96442,0.80153 8.83947,0.80151 1.87505,1.87022 -0.80358,2.1374 -2.9465,1.33583 -5.08939,-0.53433 -3.48222,-0.8015 -6.96443,-0.26719 -4.2858,1.06869 -6.69657,-1.06869 -8.57162,-2.67173 -7.2323,-1.60304 -6.69655,-1.33586 h -9.91092 l -5.08941,-0.26718 -5.89296,-0.53435 -5.08939,-0.80152 -5.08939,-0.26717 -3.48222,-0.80152 -5.08939,-1.0687 -2.94649,-1.06869 -1.33932,-1.87021 z"
     id="path888" />
  <path
     d="m 297.01247,174.08937 -3.40217,-0.11916 -2.25747,-0.28829 -3.62806,0.16444 -2.8032,1.80935 -4.28751,0.98664 -2.96805,0.49384 -1.15404,1.47995 -1.97889,3.45427 -2.14376,2.13823 -1.97888,4.76978 -1.97889,2.46711 -2.80322,0.65776 -3.46264,1.48048 -4.12263,0.65775 -3.4632,0.82219 h -4.61723 l -3.46265,-0.16443 -3.46267,-0.65776 -2.3086,0.98663 -2.80374,1.64492 -3.2978,0.49332 -2.60547,-1.09695 -1.70707,-1.60797 -1.87506,0.53442 -2.67852,-0.26695 -4.28592,-0.80138 -5.35704,-2.9391 -4.55358,-0.26746 -2.94667,2.93909 -1.60691,3.47351 -3.48248,2.93858 v 1.87024 l 1.87505,2.93908 0.26818,2.93858 1.33925,2.13771 2.41035,1.33581 3.21433,1.06886 1.87507,2.67162 0.26816,3.74047 2.1427,1.06834 1.33926,2.67214 0.26816,2.67162 2.94617,1.60276 3.75012,0.26747 4.28594,0.80139 2.41087,-1.33582 h 1.6069 l 3.21433,-0.26695 0.53579,1.06834 1.07161,0.26747 h 4.55359 l 3.75014,-0.8019 h 3.75012 l 2.41086,1.33633 1.6069,1.33581 h 3.75014 l 2.41086,0.26695 3.48197,2.13719 4.82175,0.8019 h 3.75011 l 3.48198,-0.8019 h 3.75011 l 2.14325,-2.67162 0.53578,-3.74047 1.33927,-2.93857 -0.5358,-5.61071 2.94614,-2.67162 4.82175,-2.40467 4.55358,-1.33581 1.33928,-3.74047 1.60741,-5.34377 1.60688,-2.67161 3.75013,-0.80138 h 5.0894 v -1.06886 l -1.87508,-2.67161 -4.55356,-1.60329 -3.21432,-2.93857 2.6785,-0.53443 -1.07109,-2.13719 -2.14322,-1.60329 -4.5536,-1.87023 -1.33922,-1.87024 1.33922,-1.33581 -1.33922,-2.40467 1.33922,-1.87024 z"
     style="fill:#c2836c;fill-opacity:1;stroke:#000000;stroke-width:1.00829;stroke-linecap:butt;stroke-linejoin:miter;stroke-miterlimit:4;stroke-dasharray:none;stroke-opacity:1"
     id="path890" />
  <path
     d="m 287.63765,153.51676 -2.67904,2.9391 -4.28542,4.54186 -4.82174,3.47352 -4.82175,2.67162 -0.26764,2.13719 -1.87504,4.2749 -4.01779,1.06885 -4.82174,-0.53443 -1.60689,-1.06885 -2.14323,1.06885 -3.75013,4.00743 -3.48198,1.33581 -2.67849,3.47352 -2.94668,1.06886 -8.03607,1.33581 -4.82123,2.13719 -0.26816,7.21348 1.70707,1.60797 2.60547,1.09695 3.2978,-0.49332 2.80374,-1.64492 2.3086,-0.98663 3.46267,0.65776 3.46265,0.16443 h 4.61723 l 3.4632,-0.82219 4.12263,-0.65775 3.46264,-1.48048 2.80322,-0.65776 1.97889,-2.46711 1.97888,-4.76978 2.14376,-2.13823 1.97889,-3.45427 1.15404,-1.47995 2.96805,-0.49384 4.28751,-0.98664 2.8032,-1.80935 3.62806,-0.16444 2.25747,0.28829 3.40217,0.11916 2.94665,-2.40465 6.42863,-1.60277 4.01778,-0.53443 1.87508,-1.06886 v -1.06885 -1.60277 l -3.75014,-1.06885 -3.7496,-2.13719 h -4.55411 l -4.8212,-1.33582 -2.67853,-2.40465 -2.41087,-5.34377 z"
     style="fill:#c2746c;fill-opacity:1;stroke:#000000;stroke-width:1.00829;stroke-linecap:butt;stroke-linejoin:miter;stroke-miterlimit:4;stroke-dasharray:none;stroke-opacity:1"
     id="path977" />
  <path
     id="path894"
     d="m 167.51249,218.44207 1.38209,-1.88642 2.18224,-0.36277 2.40047,0.21766 0.8729,2.10408 1.52756,1.30598 2.32774,1.23341 1.52758,1.45109 -0.29097,1.45108 -2.47321,0.0725 -1.81854,-0.72554 -2.40048,-0.65299 -1.67305,-1.81386 -1.89127,-0.50788 -1.52758,-0.72554 z"
     style="fill:#c2836c;fill-opacity:1;stroke:#000000;stroke-width:1.00829;stroke-linecap:butt;stroke-linejoin:miter;stroke-miterlimit:4;stroke-dasharray:none;stroke-opacity:1" />
  <path
     id="path896"
     d="m 283.10152,267.03221 -4.03197,0.43714 -2.27895,-0.78684 -0.8765,-0.96168 1.49007,-0.78684 2.8925,-0.78684 0.61357,-0.87426 3.50604,0.96169 0.61359,1.13653 -0.17533,1.13655 h -1.4024 -0.70123 z"
     style="fill:#c2836c;fill-opacity:1;stroke:#000000;stroke-width:1.00829;stroke-linecap:butt;stroke-linejoin:miter;stroke-miterlimit:4;stroke-dasharray:none;stroke-opacity:1" />
  <path
     id="path898"
     d="m 290.37661,264.58428 5.2591,0.0874 4.64556,0.17484 1.66536,0.61199 h 3.15549 l 2.54188,-0.34972 1.92832,-1.92337 h 1.84071 l 1.92831,0.52456 0.52595,2.01081 -1.84071,1.48624 -2.36659,0.26228 -3.59371,1.0491 -3.41842,0.26228 -2.80486,0.87427 -3.06781,0.96167 h -3.15545 l -2.54191,-0.69938 -0.96417,-1.83597 -0.26296,-1.92336 z"
     style="fill:#c2836c;fill-opacity:1;stroke:#000000;stroke-width:1.00829;stroke-linecap:butt;stroke-linejoin:miter;stroke-miterlimit:4;stroke-dasharray:none;stroke-opacity:1" />
  <path
     id="path900"
     d="m 310.62416,273.41433 7.45038,0.17483 4.99615,0.34972 2.71721,0.26228 2.10363,1.22397 1.40244,1.66108 -2.36661,1.48625 -3.4184,0.52455 -3.15546,-0.52455 -3.41842,-0.9617 -2.98015,-1.22396 -2.27895,-0.87425 z"
     style="fill:#c2836c;fill-opacity:1;stroke:#000000;stroke-width:1.00829;stroke-linecap:butt;stroke-linejoin:miter;stroke-miterlimit:4;stroke-dasharray:none;stroke-opacity:1" />
  <path
     id="path902"
     d="m 321.58062,265.89569 2.80485,-1.48626 3.50606,0.87426 3.06781,1.04911 h 3.94434 l 2.01599,0.612 2.8925,-0.43714 3.33077,-1.13655 3.0678,-0.52455 2.27895,-0.17484 3.06779,-0.43714 4.20729,0.3497 2.62958,-0.96168 h 3.2431 l 2.98015,0.0874 1.49007,-0.61197 2.19131,0.43712 2.98017,0.26228 0.96416,0.17486 v 0.96168 l -1.57774,0.3497 -1.84068,1.22397 -2.19131,0.34969 -6.48623,-0.43711 h -3.85666 -3.68136 l -1.75303,0.61197 -4.20729,0.78684 -4.20729,0.6994 -3.24311,0.87425 -1.92832,0.43714 -3.06783,0.43714 -2.98015,-0.0874 -1.84069,-0.69942 -2.8925,-0.0874 -1.8407,-0.52455 -2.10363,-0.43711 -0.78886,-1.22397 z"
     style="fill:#c2836c;fill-opacity:1;stroke:#000000;stroke-width:1.00829;stroke-linecap:butt;stroke-linejoin:miter;stroke-miterlimit:4;stroke-dasharray:none;stroke-opacity:1" />
  <path
     d="m 374.52238,273.93894 -2.71708,-1.22395 -1.75353,-0.96165 -1.75299,-1.31134 -3.33064,0.61194 -4.20715,1.04908 -1.40239,1.48619 -2.01593,2.09817 -1.40241,1.74849 -2.98057,0.61195 -3.06772,3.40952 0.0876,1.39878 1.5777,-0.26228 2.01593,-0.26225 2.98061,-1.13652 2.01589,-1.04909 2.01595,-0.4371 3.24301,-0.78682 1.57769,-0.69938 2.80477,-1.22394 2.89242,-0.96164 z"
     style="fill:#c2836c;fill-opacity:1;stroke:#000000;stroke-width:1.00829;stroke-linecap:butt;stroke-linejoin:miter;stroke-miterlimit:4;stroke-dasharray:none;stroke-opacity:1"
     id="path904" />
  <path
     d="m 395.38339,264.40925 -3.50596,0.78681 -5.17181,1.749 -2.89241,0.17483 -1.84062,0.26228 h -2.54186 l -2.98004,0.69939 -2.01595,0.0874 -2.27885,0.69938 -3.85711,1.57364 1.75299,1.31134 1.75353,0.96165 2.71708,1.22395 2.45418,-2.01075 3.06773,-0.69939 3.15536,-0.52455 2.80477,-1.1365 5.52241,-0.87424 3.94423,-0.43712 2.27886,-1.5736 0.17531,-0.9622 0.17529,-1.22391 z"
     style="fill:#ffffff;fill-opacity:1;stroke:#000000;stroke-width:1.00829;stroke-linecap:butt;stroke-linejoin:miter;stroke-miterlimit:4;stroke-dasharray:none;stroke-opacity:1"
     id="path980" />
  <path
     id="path910"
     d="m 323.06113,207.49993 -5.29704,2.24617 -2.56607,2.55947 -1.42559,1.99068 v 2.84384 l -2.85118,2.70164 -1.71069,2.84384 -0.42768,2.98604 1.56813,2.27507 4.13423,2.98604 1.14047,2.98602 -0.57026,2.84385 -0.42764,2.98603 v 3.12822 l 1.42557,2.13288 1.85329,0.42658 1.42556,-2.13288 1.14046,-2.41727 2.56607,-3.55479 1.42562,-4.55015 0.85534,-4.12357 0.99791,-2.84384 2.28095,-1.56411 1.71069,1.42192 0.28513,4.26576 1.7107,2.13288 3.13631,1.7063 1.99582,1.42193 1.42559,1.42191 3.13631,0.42658 1.99581,-0.14219 2.42352,1.56411 0.85535,1.42192 -0.14257,2.27508 h 2.28096 l 1.28303,-2.84385 0.9979,-2.84384 1.28303,-3.4126 -0.42767,-4.12358 -1.14048,-1.84849 -3.27886,-1.42192 -3.13629,-1.56411 -1.4256,-1.99069 -2.85116,-2.13288 -0.71282,-1.56411 2.99376,-0.42658 1.85326,-0.14219 3.1363,-1.70631 2.85116,-0.85315 h 4.27679 1.56814 l 0.42768,-1.7063 -1.14046,-1.70631 -3.70656,-1.13754 -2.99373,-0.42657 -3.84909,-0.56877 -3.84909,0.42658 -3.8491,0.71096 -4.13421,2.27507 -2.42352,0.42658 -2.13836,-0.85315 -1.42558,-1.56411 -1.85327,-2.55947 -1.42559,-1.27972 z"
     style="fill:#c2836c;fill-opacity:1;stroke:#000000;stroke-width:1.00829;stroke-linecap:butt;stroke-linejoin:miter;stroke-miterlimit:4;stroke-dasharray:none;stroke-opacity:1" />
  <path
     id="path912"
     d="m 316.33615,203.21192 2.90566,-3.38119 3.09935,-1.15927 h 3.09933 l 2.42137,-0.1932 2.22766,-1.35248 1.74339,-1.44908 1.64652,-0.86945 2.1308,0.86945 1.93708,0.0966 3.09937,0.77285 3.58364,0.67623 2.90563,0.67624 3.09934,-0.19321 0.29055,0.77284 h 2.42137 l 2.80878,0.67624 4.26162,-0.0966 5.03645,-0.0966 1.64651,-0.67624 2.90564,-0.96606 2.51823,-1.35247 2.03395,-0.48302 h 3.68047 l 1.16226,0.38641 -2.32451,2.31853 -3.38991,2.31853 -2.71193,1.44908 -3.19621,1.83551 -2.90562,1.15926 -2.71196,0.48302 h -3.3899 l -3.58362,-0.57962 -2.42137,-0.57964 -6.10185,-0.38642 -4.45531,-0.0966 -3.48679,-0.67625 -3.58361,-0.86945 -3.00248,0.28982 -3.29306,1.15927 -2.71193,1.54568 -2.81566,0.68429 -1.45727,-0.37684 -1.5112,-0.59216 -0.62069,-0.51141 -1.64613,-0.34991 -0.94451,0.0808 -0.43178,-0.21532 z"
     style="fill:#c2836c;fill-opacity:1;stroke:#000000;stroke-width:1.00829;stroke-linecap:butt;stroke-linejoin:miter;stroke-miterlimit:4;stroke-dasharray:none;stroke-opacity:1" />
  <path
     id="path914"
     d="m 370.09236,216.74251 3.80566,-0.65446 3.14948,0.52357 2.88708,0.78535 4.33057,-0.13089 h 3.01828 l 1.57476,1.04713 0.65615,1.57071 -2.36212,1.43981 -0.52491,1.04714 v 1.57069 l -2.36216,-0.13089 -2.09969,-0.52356 -1.18103,-1.43982 -2.75584,-1.17802 -2.09969,-0.39268 -2.23088,-0.91624 -2.23091,-1.17803 -0.91861,-0.52356 z"
     style="fill:#c2836c;fill-opacity:1;stroke:#000000;stroke-width:1.00829;stroke-linecap:butt;stroke-linejoin:miter;stroke-miterlimit:4;stroke-dasharray:none;stroke-opacity:1" />
  <path
     id="path916"
     d="m 386.2336,227.60653 3.01826,-0.13089 2.23092,0.65447 2.09967,0.13089 2.09968,0.26178 h 1.96845 l 1.83721,0.65446 v 2.09427 l -0.91862,0.52357 -3.01827,-0.39268 -2.36212,-0.52357 -1.706,-0.65445 h -2.62459 l -1.04985,-0.65447 -1.31227,-0.65446 z"
     style="fill:#c2836c;fill-opacity:1;stroke:#000000;stroke-width:1.00829;stroke-linecap:butt;stroke-linejoin:miter;stroke-miterlimit:4;stroke-dasharray:none;stroke-opacity:1" />
  <path
     id="path918"
     d="m 396.73197,208.889 2.75582,-4.71211 1.96845,-1.5707 0.13123,-3.14141 -1.57477,-1.4398 0.39372,-2.87963 2.09966,-2.09427 1.96845,-1.83249 2.36212,-2.09427 1.706,-0.39267 1.44352,1.04714 -1.18106,1.96338 -1.04985,1.5707 v 3.66496 2.61784 l 1.706,0.78535 2.88703,0.52357 3.01829,0.91625 v 0.65446 h -1.70597 l -1.83724,1.04713 -2.88703,0.1309 -0.78739,1.04713 2.09966,3.01051 0.39373,2.74873 -0.13125,1.57071 -2.09968,0.39267 h -2.75583 l -1.96843,-0.26179 -2.36213,-0.65445 -1.18108,-0.91624 -1.70599,-0.26179 -1.44353,-0.13089 z"
     style="fill:#c2836c;fill-opacity:1;stroke:#000000;stroke-width:1.00829;stroke-linecap:butt;stroke-linejoin:miter;stroke-miterlimit:4;stroke-dasharray:none;stroke-opacity:1" />
  <path
     id="path920"
     d="m 405.39313,229.83169 2.09968,-2.87961 0.26245,-0.91624 h 3.5432 l 4.85551,0.13088 2.62461,-0.26178 0.91858,0.78535 5.38041,-0.65445 3.14952,0.26178 2.62459,1.04713 4.06812,1.5707 1.83724,2.09427 0.65613,1.57071 -2.62461,0.26178 -2.88703,-0.26178 -2.09969,-0.65447 -3.28071,-0.52356 -1.706,-1.04713 -2.09968,-0.52358 -4.33059,1.30893 -2.09966,0.52357 -1.44354,0.65445 -3.41196,-0.13089 -3.28075,-0.65446 -1.57474,-0.26178 z"
     style="fill:#c2836c;fill-opacity:1;stroke:#000000;stroke-width:1.00829;stroke-linecap:butt;stroke-linejoin:miter;stroke-miterlimit:4;stroke-dasharray:none;stroke-opacity:1" />
  <path
     id="path922"
     d="m 437.15072,212.94665 9.18608,-3.2723 6.299,-1.43981 1.83724,0.26179 2.36211,1.96337 3.14953,2.74872 2.36212,1.17803 2.6246,1.83249 0.26246,2.87962 2.75582,0.91625 2.75584,0.91624 2.62459,0.39268 2.23088,0.13088 1.57477,-1.04713 1.57475,-1.96337 1.96844,-4.31943 2.6246,-1.57071 1.83723,-1.43981 2.2309,-1.17803 1.83723,-0.13089 v 28.40354 l -1.96845,0.91624 -2.36215,-1.17803 -3.01828,-1.57069 -2.7558,-1.04714 -2.75583,-0.65446 h -1.83722 l -1.83722,-0.91625 -1.96844,-1.30891 -2.09968,-1.30892 -0.91861,-1.43982 -1.96844,2.61784 -2.75583,2.09427 -2.09968,0.52357 h -2.88703 l -1.31233,-1.30892 -0.91859,-2.35605 -0.52494,-2.22516 -2.62459,-0.78535 -2.36211,-1.30892 0.39368,-1.30892 1.57476,-1.30892 h 1.83723 l 2.88704,0.13089 2.88705,-0.91624 1.18106,-0.91625 -1.04983,-1.17803 -2.6246,-0.13088 h -2.49336 l -2.62459,-1.04714 -1.96844,-0.65446 -2.23092,-0.78535 -2.62458,-1.30892 -2.09967,-0.52357 -2.36214,-0.91624 -1.57476,-0.52357 -1.18106,-0.65446 z"
     style="fill:#c2836c;fill-opacity:1;stroke:#000000;stroke-width:1.00829;stroke-linecap:butt;stroke-linejoin:miter;stroke-miterlimit:4;stroke-dasharray:none;stroke-opacity:1" />
  <path
     id="path924"
     d="m 289.46478,147.54386 3.73863,-4.93194 3.25626,-2.04494 3.49744,-2.04495 3.97984,-2.76669 3.01505,-3.24785 3.01502,-1.32321 2.17084,-2.04494 3.25624,-3.84931 0.72361,-1.4435 2.17082,-1.3232 v -0.36086 l 4.46224,0.36086 v 2.04495 l -1.68843,3.00727 1.08543,1.20292 1.44721,1.56377 0.60302,0.96234 -1.20603,0.84203 -2.53262,-0.12029 -3.37684,1.08262 -3.37684,1.08262 -2.05023,2.28552 -2.17081,1.80437 -3.01505,1.56378 -2.89444,0.84204 -1.44721,1.44349 -1.92963,2.40582 -2.53263,1.68408 -2.8944,1.08262 -1.68843,0.96232 h -2.29145 z"
     style="fill:#daaca7;fill-opacity:1;stroke:#000000;stroke-width:1.00829;stroke-linecap:butt;stroke-linejoin:miter;stroke-miterlimit:4;stroke-dasharray:none;stroke-opacity:1" />
  <path
     id="path926"
     d="m 362.79044,148.38589 3.49745,-2.76669 2.17083,-0.84203 2.05021,-0.96234 1.92963,-1.80436 2.29141,-0.84203 h 2.17085 l 0.72359,-0.48117 1.20602,-1.92466 0.1206,-1.68407 0.36181,-1.08262 3.01504,-0.24058 2.53262,0.96233 2.41203,0.48116 2.53262,1.4435 v 1.92465 l -0.84421,3.24785 -0.1206,1.80437 1.08541,1.08262 2.17083,1.56378 v 2.64641 l -0.9648,3.00727 -0.60302,2.76669 -0.36179,1.08262 -2.17084,-0.12029 -1.4472,-0.96233 -1.80902,-2.16524 -2.05024,1.56378 -1.32661,2.40583 -0.1206,3.00727 -0.96482,2.76669 -2.05022,0.48116 -1.68843,-0.12028 -1.44721,-1.56379 -2.29142,-0.72174 -2.89443,-1.20292 -1.92963,-1.3232 -1.44721,-2.16523 -0.84422,-1.44349 -0.72359,-0.84204 -1.56782,-1.92465 -0.36181,-1.80437 -0.12061,-1.68408 z"
     style="fill:#daaca7;fill-opacity:1;stroke:#000000;stroke-width:1.00829;stroke-linecap:butt;stroke-linejoin:miter;stroke-miterlimit:4;stroke-dasharray:none;stroke-opacity:1" />
  <path
     id="path928"
     d="m 342.40882,153.79898 1.9296,-3.36815 0.36181,-1.32319 0.24121,-1.80436 0.603,-0.96234 2.53263,-1.08261 2.29145,-0.48116 1.3266,-0.36088 2.77383,-0.36088 h 2.89442 l 2.41204,0.60146 1.0854,0.60146 -2.53263,3.36814 -0.24118,2.6464 -0.24121,1.32321 h -2.77385 l -1.56781,-0.48116 h -2.29142 l -3.73864,0.96232 -1.68843,0.60146 -1.92964,1.20291 -1.44718,-0.36088 z"
     style="fill:#daaca7;fill-opacity:1;stroke:#000000;stroke-width:1.00829;stroke-linecap:butt;stroke-linejoin:miter;stroke-miterlimit:4;stroke-dasharray:none;stroke-opacity:1" />
  <path
     id="path930"
     d="m 357.36337,129.25963 -2.77382,2.28553 -2.29144,1.20291 -2.7738,0.96232 -1.68845,1.20291 v 1.92466 l 2.29144,1.20291 3.13562,1.2029 2.17085,0.48118 1.68841,-0.72176 0.4824,-2.16523 0.96481,-1.80436 -0.24121,-2.16525 -1.08539,-1.08261 -0.12061,-1.3232 v -0.60146 z"
     style="fill:#daaca7;fill-opacity:1;stroke:#000000;stroke-width:1.00829;stroke-linecap:butt;stroke-linejoin:miter;stroke-miterlimit:4;stroke-dasharray:none;stroke-opacity:1" />
  <path
     id="path932"
     d="m 361.94624,124.92916 2.41201,1.80436 v 0.96233 l 0.36181,2.52611 1.56783,0.72174 0.84419,-0.24058 1.32664,-1.68407 0.4824,-1.08262 -0.72362,-2.76669 -1.20602,-0.60146 -2.29142,-0.12029 -1.3266,0.24059 z"
     style="fill:#daaca7;fill-opacity:1;stroke:#000000;stroke-width:1.00829;stroke-linecap:butt;stroke-linejoin:miter;stroke-miterlimit:4;stroke-dasharray:none;stroke-opacity:1" />
  <path
     id="path934"
     d="m 366.52909,115.30588 4.46226,3.00727 3.13562,1.20291 2.41202,1.44349 3.49745,2.28553 1.56783,1.92466 1.68843,-0.36088 v -1.44349 l -1.44724,-2.40582 -0.84422,-2.04495 -0.7236,-2.64639 -1.20603,-1.20291 -3.37681,-0.36088 h -6.27127 l -2.29145,0.24058 z"
     style="fill:#daaca7;fill-opacity:1;stroke:#000000;stroke-width:1.00829;stroke-linecap:butt;stroke-linejoin:miter;stroke-miterlimit:4;stroke-dasharray:none;stroke-opacity:1" />
  <path
     id="path936"
     d="m 356.23355,116.02469 h 3.64921 l 1.45966,1.38312 2.2625,1.31034 0.94881,-0.0728 0.8028,1.52873 0.43792,0.94634 -2.99233,-0.14559 -1.97058,-0.43677 -1.09478,-0.50957 -1.24073,-1.67432 -1.16774,-1.01914 -0.94878,-0.36398 z"
     style="fill:#daaca7;fill-opacity:1;stroke:#000000;stroke-width:1.00829;stroke-linecap:butt;stroke-linejoin:miter;stroke-miterlimit:4;stroke-dasharray:none;stroke-opacity:1" />
  <path
     id="path938"
     d="m 343.38838,120.17407 2.1895,-0.58237 2.18951,0.0728 1.53266,0.65517 2.11656,0.29118 2.11654,1.09194 0.29193,0.72797 -0.5109,1.38312 -0.80284,0.94635 -0.8758,1.52872 v 1.38312 l -1.38667,1.67432 -1.97058,1.31033 -1.3137,0.21838 h -2.18955 -1.89756 l -1.24072,-0.50956 -0.43793,-0.80076 0.43793,-1.09195 0.8028,-0.80076 0.58387,-0.87354 v -1.38314 l 0.36495,-2.47506 0.073,-1.60151 z"
     style="fill:#daaca7;fill-opacity:1;stroke:#000000;stroke-width:1.00829;stroke-linecap:butt;stroke-linejoin:miter;stroke-miterlimit:4;stroke-dasharray:none;stroke-opacity:1" />
  <path
     id="path944"
     d="m 324.33955,108.3083 0.29193,-1.01914 1.75162,-0.65517 1.38669,1.01915 2.18953,1.38312 2.70039,0.72797 1.97057,0.72795 2.18954,1.38313 0.80281,1.23753 v 2.11109 l -0.94881,1.45593 -0.65683,0.80075 -1.75163,0.43678 -1.75162,0.0728 -1.16774,-0.80076 -1.82459,-1.09194 -0.72983,-1.52871 -1.38671,-1.09194 -0.94879,-0.87356 -0.80283,-0.43677 -0.36492,-1.74711 -0.87582,-0.36398 z"
     style="fill:#daaca7;fill-opacity:1;stroke:#000000;stroke-width:1.00829;stroke-linecap:butt;stroke-linejoin:miter;stroke-miterlimit:4;stroke-dasharray:none;stroke-opacity:1" />
  <path
     id="path946"
     d="m 343.16941,107.65314 3.79518,0.29118 2.04353,0.14559 1.45968,0.43677 0.58388,1.67432 0.14597,1.16474 -0.36491,1.31032 h -0.72987 l -0.94878,-0.80075 -0.72985,-0.94635 -1.3137,-0.50957 -1.31369,-0.36398 -0.87582,-0.58238 -0.94878,-0.43677 -1.31374,-0.21839 v -0.14559 -0.65517 z"
     style="fill:#daaca7;fill-opacity:1;stroke:#000000;stroke-width:1.00829;stroke-linecap:butt;stroke-linejoin:miter;stroke-miterlimit:4;stroke-dasharray:none;stroke-opacity:1" />
  <path
     id="path950"
     d="m 348.64321,103.94054 1.16774,-0.50958 1.3867,-0.21839 1.53267,0.0728 2.3355,0.43677 2.04354,1.09194 1.45966,0.72797 1.8976,0.72795 1.38668,0.2184 1.60566,0.94635 0.58387,1.60151 -0.073,2.83905 -0.94882,-0.0728 h -0.94878 -1.09475 l -1.53269,-0.65516 -1.31369,-0.58237 -0.4379,-0.50957 -1.45968,-0.72797 -0.87581,-1.31033 -1.24074,-0.36397 -0.9488,-0.65517 -1.24071,-0.29118 -0.29195,-0.43679 -0.87582,-0.43677 -0.65685,-0.58236 -1.09475,-0.50958 -0.4379,-0.50957 z"
     style="fill:#daaca7;fill-opacity:1;stroke:#000000;stroke-width:1.00829;stroke-linecap:butt;stroke-linejoin:miter;stroke-miterlimit:4;stroke-dasharray:none;stroke-opacity:1" />
  <path
     id="path952"
     d="m 327.91577,73.802943 1.89757,-2.693457 1.67863,-0.218388 2.3355,0.582368 1.31371,0.727962 1.16774,0.436778 h 2.33548 l 1.24074,0.218387 2.84635,0.0728 2.48148,0.800758 1.45969,1.601514 -0.87581,2.693458 0.21892,2.256678 1.97058,1.674312 0.14598,2.693455 -1.75162,2.547865 -1.97057,2.40227 -2.11653,1.747107 -2.48146,2.766253 -1.8246,1.164737 0.8758,0.800758 0.073,1.164737 1.02178,1.528718 1.09475,1.674307 0.51091,2.32948 0.65685,1.45592 v 1.01915 l -1.38671,0.14559 -1.60563,-0.21839 -1.89761,0.0728 -0.58387,-0.65517 -1.09474,0.87355 -2.91936,-0.21838 -1.97058,-0.0728 -1.16774,-0.43678 -1.60565,-0.50957 -0.43789,-1.38313 1.6786,-0.29119 1.67865,-0.58236 -0.58386,-1.09194 -2.26252,-0.50958 -2.04356,0.50958 -1.24072,-0.36399 -0.80281,-1.019132 -0.94881,-1.310333 -1.24072,-1.601514 -0.4379,-1.965495 -0.58386,-1.528718 -0.29195,-1.8927 0.14596,-0.800758 2.18953,-0.07279 1.38669,-0.727963 0.29193,-0.582367 0.65686,-1.455923 0.4379,-1.019145 0.9488,-3.20303 0.43792,-1.455923 V 79.990613 77.95232 l 0.29194,-0.800757 0.14595,-1.528718 0.073,-1.310329 z"
     style="fill:#daaca7;fill-opacity:1;stroke:#000000;stroke-width:1.00829;stroke-linecap:butt;stroke-linejoin:miter;stroke-miterlimit:4;stroke-dasharray:none;stroke-opacity:1" />
  <path
     id="path954"
     d="m 334.99518,67.979253 0.29196,-1.455922 1.67863,-0.72796 0.94878,0.363979 0.51091,0.94635 v 1.237533 h -1.16776 -1.09477 -0.14594 l -0.65685,0.291185 z"
     style="fill:#daaca7;fill-opacity:1;stroke:#000000;stroke-width:1.00829;stroke-linecap:butt;stroke-linejoin:miter;stroke-miterlimit:4;stroke-dasharray:none;stroke-opacity:1" />
  <path
     id="path956"
     d="m 340.46901,69.362381 1.45967,-1.237535 1.38669,-0.291186 1.09477,0.218391 0.94878,0.946347 0.58387,0.582371 -0.58387,0.727959 -1.09475,0.655165 h -0.87579 l -0.72987,-0.800758 -0.87579,-0.07279 -0.72985,-0.509572 z"
     style="fill:#daaca7;fill-opacity:1;stroke:#000000;stroke-width:1.00829;stroke-linecap:butt;stroke-linejoin:miter;stroke-miterlimit:4;stroke-dasharray:none;stroke-opacity:1" />
  <path
     id="path969"
     d="m 192.63705,50.263371 10.51481,2.320664 7.27571,-0.268779 7.00627,4.031662 5.92835,-3.22533 4.85049,-1.343887 15.62932,-2.956553 6.19783,-3.225331 3.77262,-4.300442 1.8863,-1.881443 8.3536,1.612668 12.39568,1.343888 6.46729,-1.343888 8.08415,-6.181885 4.31154,-2.687776 10.77885,-4.300442 4.04206,-2.687774 4.31156,-0.537555 1.34733,-3.494109 4.58103,-2.418998 -2.96419,-1.343888 -2.15577,-1.343888 2.96418,-1.881443 7.27574,-3.22533 1.6168,-2.4189987 V 7.6981812 l 7.5452,-3.4941085 4.58102,-1.3438878 -0.53893,-2.15022046 V -1.7090336 l -340.9396839,0.3263439 0.011569,43.0384997 5.9496505,-0.835942 7.3433474,-4.340685 6.133852,3.377144 5.087369,7.08882 2.260615,3.072509 1.720667,2.790273 1.678509,2.622271 v 0"
     style="fill:#ffffff;stroke:#000000;stroke-width:1.00829;stroke-linecap:butt;stroke-linejoin:miter;stroke-miterlimit:4;stroke-dasharray:none;stroke-opacity:1" />
  <path
     id="path971"
     d="m 322.00182,39.355314 2.68592,-5.740712 3.26146,-4.59257 5.37182,-2.487641 4.60444,-1.722215 5.17996,0.574074 -0.76739,4.209855 -2.49408,5.549354 -2.87775,4.783925 -1.72667,4.209855 -2.49405,2.487644 -3.83702,0.382712 -2.68592,-1.722211 -1.91852,-1.913573 -1.15111,-2.48764 z"
     style="fill:#ffffff;stroke:#000000;stroke-width:1.00829;stroke-linecap:butt;stroke-linejoin:miter;stroke-miterlimit:4;stroke-dasharray:none;stroke-opacity:1" />
  <path
     id="path973"
     d="m 201.33572,70.90333 1.53388,-1.377738 0.19167,-3.250154 v -1.911856 l 2.30015,-1.338298 3.06687,-0.191187 2.10847,-0.38237 h 1.72511 l 1.91678,-0.764743 11.11738,0.382372 1.91681,1.147113 -0.57505,1.720671 -0.76672,2.294227 v 2.485413 l -4.98366,1.911853 -4.21692,0.955929 -2.87519,0.955928 -2.68351,3.05897 h -3.25853 l -3.25854,-1.3383 -2.30016,-0.955926 -0.9584,-1.147115 z"
     style="fill:#ffffff;fill-opacity:1;stroke:#000000;stroke-width:1.00829;stroke-linecap:butt;stroke-linejoin:miter;stroke-miterlimit:4;stroke-dasharray:none;stroke-opacity:1" />
  <path
     id="path870"
     style="fill:#c2836c;fill-opacity:1;stroke:#000000;stroke-width:1.00829;stroke-linecap:butt;stroke-linejoin:miter;stroke-miterlimit:4;stroke-dasharray:none;stroke-opacity:1"
     d="m 84.695605,2.7539299 -3.153288,1.9654687 -1.182219,1.9654644 -0.788319,4.324338 -9.064898,0.78629 -6.699929,1.965466 -3.152761,1.572061 -1.182746,4.717742 -4.7294,1.572061 -1.97053,7.862388 -3.152761,3.14464 -5.912135,4.324339 -8.276578,5.8964 -2.364442,6.683212 -2.364958,3.930931 -2.758859,1.965469 5.517719,2.751755 3.547178,3.53805 5.123817,1.965465 2.364442,6.289803 2.364957,-1.965468 3.547178,7.075581 2.364442,7.862385 -1.576638,6.289804 3.941595,3.144646 5.911611,-0.78629 8.276578,-2.358356 4.335508,-3.538047 2.364431,-3.930935 2.364967,0.786289 3.94107,8.255273 0.788319,5.11011 3.153287,6.682665 3.546652,3.14517 1.57664,3.53805 -1.182222,3.53753 3.941079,2.75176 -3.152751,2.75175 -1.576647,3.53805 3.547178,1.96547 -0.394416,4.32434 -1.182221,4.71722 1.576637,1.17969 3.152761,-1.17969 1.346563,-2.40623 1.363253,-1.43468 1.211441,-2.19027 2.12028,-1.35974 1.89283,-1.96391 0.37876,-2.41663 v -1.88845 l -0.23582,-1.35298 -1.88706,-3.05827 v -3.52867 l -1.1791,-3.99964 -4.481597,-4.46952 -4.481059,-5.881295 1.650722,-3.528673 3.774123,-4.705252 -2.358696,-3.999109 -4.717396,-7.057355 -2.122363,-4.940475 -0.472154,-5.646091 2.830338,-2.116899 4.717396,-0.235209 3.30197,-1.882206 2.830346,-1.176053 6.13233,-2.117418 5.42486,-0.705633 -0.23635,-2.352628 2.12288,-0.47042 2.3587,0.23521 -0.3965,-5.117913 -4.3355,-2.751759 -4.72941,-3.930931 -4.3355,-1.965468 -2.75888,-0.393405 -3.152769,-3.537526 -4.729399,-3.145164 -0.394416,-2.751759 -5.123303,-1.965465 h -2.758848 l -0.394427,-3.930932 3.547178,-3.538048 7.882676,-1.179176 0.393901,-5.896921 V 10.222908 L 92.183853,8.2574417 88.636675,5.8985729 V 3.146815 L 86.272243,2.7539299 Z" />
  <path
     id="path866"
     style="fill:#c2746c;fill-opacity:1;stroke:#000000;stroke-width:1.00829;stroke-linecap:butt;stroke-linejoin:miter;stroke-miterlimit:4;stroke-dasharray:none;stroke-opacity:1"
     d="m 113.11689,58.755412 1.65073,2.187669 1.24118,2.810038 2.25069,1.299904 3.73396,1.207276 1.83385,2.57379 -0.35529,4.371696 -0.47373,4.017315 0.23687,1.890527 3.90925,-0.35438 2.96181,-1.654277 3.31658,0.35438 3.6724,0.708752 4.85721,-0.354381 3.55344,-2.481158 3.43553,-0.118131 3.90924,1.181263 3.6724,3.426684 2.84339,1.890537 0.829,3.308564 0.94745,2.953659 4.3835,2.245432 3.07971,3.544291 1.54013,3.544802 -0.23687,3.544806 -1.30326,1.77241 -0.47372,1.53615 2.60599,0.945 3.19868,0.23625 2.36913,-1.06313 0.47424,-1.18177 2.36914,-0.35438 h 3.67239 l 3.90926,-0.11812 2.01384,-1.18178 0.47372,-2.363038 -1.30326,-2.481147 -1.06587,-3.781055 -0.11843,-2.599289 -6.63421,-4.844721 -2.72442,-2.599278 -4.62036,-1.890538 -3.19814,-2.363038 -2.13227,-5.199091 -2.36913,-1.299906 -8.29277,-3.662935 -1.65854,-0.708754 -2.25072,-2.126783 6.75266,-1.772408 0.94743,-3.308559 -2.01384,-1.654283 -2.36914,-2.363034 -7.52007,-1.273884 -4.85671,-0.590631 -2.60651,-2.599286 -4.14612,-3.544811 -2.72442,-0.945526 -3.55396,-0.354378 -5.51772,2.358873 -4.72941,2.358351 -3.54716,-0.78629 0.3965,5.117913 -2.3587,-0.23521 -2.12289,0.47042 z" />
  <path
     id="path883"
     style="fill:#daaca7;fill-opacity:1;stroke:#000000;stroke-width:1.00829;stroke-linecap:butt;stroke-linejoin:miter;stroke-miterlimit:4;stroke-dasharray:none;stroke-opacity:1"
     d="m 164.65456,37.290874 -7.09436,4.324339 h -6.69994 l -8.67099,3.930934 -6.69994,-0.78629 -4.7294,2.35887 3.55396,0.354378 2.72442,0.945526 4.14612,3.544812 2.60651,2.599286 4.85671,0.59063 7.52007,1.273884 2.36914,2.363035 2.01384,1.654282 -0.94743,3.308559 -6.75265,1.772408 2.25071,2.126784 1.65854,0.708753 8.29277,3.662935 2.36913,1.299906 2.13227,5.199091 3.19814,2.363038 4.62036,1.890538 2.72442,2.599289 6.63421,4.84471 0.11843,2.599289 1.06587,3.781045 1.30326,2.481157 -0.47372,2.363038 0.75441,4.61574 0.60676,2.17987 v 3.02756 l -0.12158,2.66381 -0.84987,3.27005 -4.12784,2.17987 -4.12787,0.72644 -4.61357,1.4529 -1.3356,0.96894 1.45664,2.30111 -0.60677,1.81612 -4.85668,0.48447 -3.27799,-0.48447 -3.88524,1.69539 -3.5211,2.30111 -1.89019,2.95835 2.75887,6.68268 1.57663,4.32435 8.67047,-4.71722 2.75886,-4.71723 4.72939,-0.78629 h 5.51772 l 5.12383,-3.93093 7.09383,-2.35887 5.91214,-4.32434 6.30603,-7.07558 0.39391,-7.0761 0.3939,-4.32433 -5.91162,-10.220722 -5.91162,-5.896403 -7.09436,-4.717225 -7.48824,-6.289805 -5.91216,-5.503515 -5.12329,-3.538047 v -4.717222 l 7.88216,-5.110629 1.97054,-1.965466 V 56.16029 l 6.70046,-1.179176 3.15275,-2.751758 0.78833,-1.965985 -7.48827,-2.751759 -4.7294,-3.537525 -2.36495,-3.53805 -5.51772,-1.179694 -3.94106,0.393405 z" />
</svg>
